# xmcd
# Copyright (C) 1995-1998 Ti Kan
#
# Track frame offsets:
#       150
#       8995
#       26082
#       42717
#       64302
#       78775
#       94650
#       112262
#       130172
#       149433
#       167041
#
# Disc length: 2404 seconds
#
# Revision: 2
# Processed by: cddbd v1.5.1PL2 Copyright (c) Steve Scherf et al.
# Submitted via: CD-Transfer v1.0
#
DISCID=9a09620b
DTITLE=Dusty Boots - Sidetrack
DYEAR=2005
DGENRE=
TTITLE0=Intro
TTITLE1=Birds Of A Faether
TTITLE2=Sidetrack
TTITLE3=Try Again
TTITLE4=Poor House
TTITLE5=I'm Coming Home
TTITLE6=The Flow Of Live
TTITLE7=For Certain
TTITLE8=Even While I Sleep
TTITLE9=I'll Make It On Throught
TTITLE10=Feeling Good
EXTD=
EXTT0=
EXTT1=
EXTT2=
EXTT3=
EXTT4=
EXTT5=
EXTT6=
EXTT7=
EXTT8=
EXTT9=
EXTT10=
PLAYORDER=
